# xmcd
#
# Track frame offsets:
#	150
#	22708
#	44153
#	62758
#	84948
#	106978
#
# Disc length: 1684 seconds
#
# Revision: 1
# Processed by: cddbd v1.5.1PL0 Copyright (c) Steve Scherf et al.
# Submitted via: CDex 1.50Beta5
#
DISCID=41069206
DTITLE=ダイノスターズ - 爆竜戦隊アバレンジャー もっと!もっと!!Abaren-Heart▽
DYEAR=2003
DGENRE=Pop
TTITLE0=Dinostars/君はOnly One
TTITLE1=伯亜凌駕(アバレッド)/太陽を1コ
TTITLE2=三条幸人(アバレブルー)/蒼き情熱
TTITLE3=樹 らんる(アバレイエロー)/勇気をだしてDarlin'
TTITLE4=アスカ(アバレブラック)/ハモニカの詩
TTITLE5=遠藤正明/爆竜戦隊アバレンジャー
EXTD=
EXTT0=
EXTT1=
EXTT2=
EXTT3=
EXTT4=
EXTT5=
PLAYORDER=
